<svg xmlns="http://www.w3.org/2000/svg" fill="none" viewBox="0 0 512 512">
	<g clip-path="url(#a)">
		<rect width="512" height="512" fill="#E21A1A" rx="100" />
		<path fill="#fff" d="M373.4 251.68h-93L392 102.92h93L373.4 251.68Zm0 0h-93L392 400.44h93L373.4 251.68Z" />
		<path fill="#E21A1A" d="M449.73 102.92h-22.37l-111.6 148.76 111.6 148.76h22.37l-111.6-148.76 111.6-148.76Z" />
		<path fill="#fff"
			d="M233.46 251.68h-92.91l111.6-148.76h93.01l-111.7 148.76Zm0 0h-92.91l111.6 148.76h93.01l-111.7-148.76Z" />
		<path fill="#E21A1A" d="M309.78 102.92h-22.36l-111.6 148.76 111.6 148.76h22.36l-111.6-148.76 111.6-148.76Z" />
		<path fill="#fff" stroke="#E21A1A" stroke-width="5"
			d="m263.8 101.41-.75-1H163.8l3 4 110.47 147.27L166.8 398.94l-3 4h99.26l.75-1 111.6-148.76 1.13-1.5-1.13-1.5L263.8 101.4Z" />
		<path fill="#fff" stroke="#E21A1A" stroke-width="5"
			d="m123.96 101.41-.75-1H23.95l3 4 110.47 147.27L26.95 398.94l-3 4h99.26l.75-1 111.6-148.76 1.13-1.5-1.13-1.5-111.6-148.77Z" />
	</g>
	<defs>
		<clipPath id="a">
			<path fill="#fff" d="M0 0h512v512H0z" />
		</clipPath>
	</defs>
</svg>
